<?xml version="1.0" encoding="UTF-8" standalone="no"?>
<!-- Created with Inkscape (http://www.inkscape.org/) -->

<svg
   width="189.4386mm"
   height="312.57065mm"
   viewBox="0 0 189.4386 312.57065"
   version="1.1"
   id="svg5"
   xml:space="preserve"
   xmlns:inkscape="http://www.inkscape.org/namespaces/inkscape"
   xmlns:sodipodi="http://sodipodi.sourceforge.net/DTD/sodipodi-0.dtd"
   xmlns="http://www.w3.org/2000/svg"
   xmlns:svg="http://www.w3.org/2000/svg"><sodipodi:namedview
     id="namedview7"
     pagecolor="#ffffff"
     bordercolor="#000000"
     borderopacity="0.25"
     inkscape:showpageshadow="2"
     inkscape:pageopacity="0.0"
     inkscape:pagecheckerboard="0"
     inkscape:deskcolor="#d1d1d1"
     inkscape:document-units="mm"
     showgrid="false" /><defs
     id="defs2" /><g
     inkscape:label="Layer 1"
     inkscape:groupmode="layer"
     id="layer1"
     transform="translate(-12.119474,10.638737)"><path
       style="fill:#201e1f;stroke:none;stroke-width:0.264583"
       d="m 71.716309,46.591418 c -13.91285,0 -29.695775,-2.364052 -42.333334,4.580467 -21.3733061,11.744854 -23.1372832,43.577934 -3.96875,58.152505 9.702536,7.37711 20.668986,7.38161 32.279168,7.38161 h 10.31875 c 1.019969,0 2.994554,-0.37941 3.656806,0.61331 0.774171,1.15993 0.311944,3.60283 0.311944,4.94294 v 12.17084 c 0,15.44928 -0.264584,30.85438 -0.264584,46.30208 4.120357,-1.12686 6.459803,-1.59941 10.583334,0 V 136.81434 123.58517 L 82.03506,116.706 94.205893,116.44142 h 25.135417 11.90625 v 64.29375 c 4.23307,-0.75459 6.29973,-1.66132 10.58333,0 0,-15.89035 -0.26458,-31.7418 -0.26458,-47.625 v -11.90625 c 0,-1.12183 -0.44,-3.47398 0.42413,-4.33837 1.3626,-1.36234 6.96568,-0.42413 8.83629,-0.42413 h 25.4 c 4.15396,0 10.51719,0.88477 10.81881,-5.02708 0.12171,-2.38628 -1.81504,-4.92258 -4.20423,-5.24193 -7.6491,-1.02208 -16.08931,-0.0497 -23.8125,-0.0497 -20.9132,0 -41.78829,0.26458 -62.70625,0.26458 -6.2738,0 -12.524846,-0.26458 -18.785417,-0.26458 -3.551767,0 -7.649898,0.55986 -11.1125,-0.26458 0.737129,-2.49397 -0.592932,-5.81052 -3.704167,-5.35147 -2.100792,0.30983 -3.940969,1.99443 -5.820833,2.88555 -2.809346,1.33165 -6.151563,2.09074 -9.260417,2.18996 -14.778038,0.47148 -26.801499,-14.628553 -23.577551,-28.828211 4.479661,-19.730509 30.743261,-25.992138 42.70137,-8.995834 1.702329,2.41935 3.037417,5.044546 3.721894,7.9375 1.210998,5.119688 0.867304,10.227205 -1.153055,15.081251 -0.767291,1.843616 -2.051579,3.439583 -2.780506,5.291666 -0.643467,1.635655 -0.14605,3.752586 1.485371,4.641588 2.256367,1.22952 4.305829,-0.15161 5.530585,-1.995754 2.088357,-3.144044 3.751263,-6.847153 4.383882,-10.583334 2.06031,-12.169775 -1.916377,-22.518158 -10.732823,-30.95625 24.686683,0 49.380247,-0.264584 74.083337,-0.264584 6.95007,0 13.99646,0.496623 20.90208,0.02355 2.24631,-0.153723 5.40279,0.64479 7.40833,-0.555096 3.9423,-2.359289 3.14325,-8.41031 -1.32291,-9.548018 -2.78606,-0.710407 -6.13304,-0.239184 -8.99584,-0.239184 h -17.4625 c 0,-14.416352 2.22383,-30.405388 -6.54076,-42.8625004 C 120.3708,-17.476114 87.173797,-14.568343 75.489003,8.2268343 69.616047,19.684087 71.716309,34.13457 71.716309,46.591418 m 59.531251,0 H 82.299643 c -0.04577,-5.536142 0,-11.108796 0,-16.66875 0,-6.528065 -0.03281,-12.77329 3.552031,-18.520834 9.810486,-15.7292144 34.146066,-15.3828748 42.652156,1.5875 4.89664,9.769476 2.74373,22.988324 2.74373,33.602084 m -85.195834,14.1351 c -8.063177,1.058863 -14.942609,4.944534 -18.136394,12.852401 -5.485871,13.583444 5.421312,30.600121 20.782227,28.763911 10.020565,-1.1975 17.914673,-8.256057 19.238119,-18.445161 1.5621,-12.026636 -9.303015,-24.822944 -21.883952,-23.171151 m -0.264584,3.327401 c 0,1.934633 0.760942,5.843323 -0.159543,7.547768 -0.57838,1.070505 -4.583642,0.105569 -5.096934,-0.803539 -1.195916,-2.11799 3.486944,-6.422761 5.256477,-6.744229 m 3.175,8.202083 -0.264583,-8.202083 c 1.666346,0.404018 6.637073,4.729956 5.104342,6.743435 -0.833967,1.09564 -3.570552,1.212585 -4.839759,1.458648 m 6.879167,-6.614583 c 1.203854,0.750093 2.34024,1.461558 2.645834,2.910416 -1.795198,0.372534 -2.802732,-1.185862 -2.645834,-2.910416 m -17.197917,0.264583 c -0.408781,1.720056 -0.973666,2.943489 -2.910416,2.645833 0.396081,-1.390385 1.60602,-2.150004 2.910416,-2.645833 m 109.008338,2.759075 c -4.28546,0.615685 -7.10856,6.285971 -2.11561,8.476985 4.21904,1.85129 10.61932,0.611188 15.08019,0.415925 8.51958,-0.373062 17.13706,-0.01349 25.66458,-0.01032 3.79678,0.0013 9.86103,1.471083 13.21859,-0.785813 2.47914,-1.665552 2.70139,-5.133975 0.26458,-6.940021 -1.38906,-1.027906 -3.33904,-1.186127 -5.0165,-1.259681 -9.65994,-0.423069 -19.43364,-0.01032 -29.10417,-0.01032 -5.842,0 -12.21052,-0.717021 -17.99166,0.113242 M 29.382975,80.193502 c 0.113242,-2.599531 1.061773,-5.421842 2.347648,-7.672917 0.4953,-0.867039 1.198298,-2.375429 2.418557,-1.92696 2.801408,1.029494 1.552575,4.228306 1.305983,6.424877 -0.08625,0.768615 -0.01535,2.381515 -0.675481,2.903008 -1.059127,0.836878 -4.087813,0.271992 -5.396707,0.271992 m 35.454168,0 c -1.261534,0 -4.107127,0.533929 -5.132123,-0.271992 -0.735807,-0.578114 -0.624946,-2.323306 -0.729986,-3.167591 -0.15875,-1.275557 -0.995362,-3.198019 -0.569118,-4.449234 1.200414,-3.522662 3.819789,-0.814916 4.745037,1.00965 0.465931,0.919163 0.842963,1.916907 1.115219,2.910417 0.358246,1.307835 0.559858,2.614613 0.570971,3.96875 M 45.787142,75.166419 c 0,1.154377 0.473605,3.661568 -0.271991,4.602956 -0.955146,1.205706 -5.929048,0.424127 -7.400925,0.424127 l 0.79375,-6.35 6.879166,1.322917 m 9.789584,-1.322917 0.79375,6.35 h -7.672917 c 0,-1.192742 -0.463814,-3.619235 0.271992,-4.613275 0.86016,-1.16205 5.20065,-1.613958 6.607175,-1.736725 m 90.752084,7.270486 c -4.02352,0.831056 -4.60005,6.679406 -0.79348,8.279606 3.54779,1.490927 8.91883,0.589492 12.69973,0.589492 h 27.78125 c 3.65125,0 9.99596,1.137972 13.22917,-0.796132 4.8895,-2.925498 1.15623,-7.879027 -3.175,-8.176154 -10.4775,-0.718079 -21.24604,-0.02355 -31.75,-0.02355 -5.67002,0 -12.44336,-1.01944 -17.99167,0.126736 m -90.222917,1.725347 -0.79375,6.350001 -6.342592,-1.74334 -0.271992,-4.342077 7.408334,-0.264584 M 33.616309,92.893502 h -0.264583 c -2.180696,-2.858029 -3.290888,-6.030119 -3.968751,-9.525 1.14988,-0.339989 4.350809,-0.806979 5.35993,0.0074 0.677333,0.54663 0.616479,2.110317 0.725487,2.903009 0.457994,3.334279 0.72734,4.290219 -1.852083,6.614583 m 5.291667,-3.704166 -0.79375,-6.085417 c 1.65682,0 5.930371,-0.772054 7.248789,0.271991 0.572823,0.453496 0.424127,1.469761 0.424127,2.109259 0,3.112294 -4.238095,3.255169 -6.879166,3.704167 m 25.929167,-6.085417 c -0.05794,2.802996 -1.096169,5.515504 -2.4638,7.936177 -0.954352,1.688835 -2.844536,1.798638 -3.868473,-0.08467 -0.879475,-1.617398 0.760148,-5.919787 0.776023,-7.85151 h 5.55625 m -19.050001,7.672917 v 8.202083 c -2.902214,-0.56171 -5.082381,-4.126442 -5.55625,-6.879167 l 5.55625,-1.322916 m 2.910417,8.202083 v -8.202083 c 1.208352,0.05265 4.573852,0.31697 5.256477,1.471877 1.249363,2.114021 -3.6449,6.215591 -5.256477,6.730206 M 146.59339,93.28481 c -4.32884,0.893763 -5.00776,6.84504 -0.79375,8.45556 3.51102,1.3417 8.71009,0.41354 12.43542,0.41354 h 27.51667 c 3.76237,0 10.18646,1.2237 13.49375,-0.79507 4.3471,-2.653776 1.64571,-7.724515 -2.64584,-8.155522 -10.10179,-1.014941 -20.79889,-0.04524 -30.95625,-0.04524 -6.00075,0 -13.17889,-1.085586 -19.05,0.126735 m -109.008331,0.667015 1.322917,3.175 c -1.58803,-0.376502 -4.169834,-2.566988 -1.322917,-3.175 m 17.991667,2.910416 1.322917,-2.910416 c 2.693987,0.801952 0.264054,2.604293 -1.322917,2.910416 m -8.466667,81.869496 c -2.903008,0.41566 -5.644356,1.23692 -7.9375,3.14801 -10.996084,9.16331 -4.101571,28.66072 10.847917,26.82451 3.350948,-0.4101 6.481762,-1.64041 8.972285,-3.96848 9.954419,-9.31042 2.104761,-28.00694 -11.882702,-26.00404 m 58.208331,0 c -2.98556,0.42783 -5.861841,1.45388 -8.201816,3.41259 -11.040004,9.24084 -3.131873,28.44641 11.376816,26.55993 2.53709,-0.33072 5.04561,-1.21179 7.14375,-2.68552 12.08882,-8.48677 4.79611,-29.45235 -10.31875,-27.287 m 58.20834,0 c -2.86809,0.41089 -5.66209,1.2692 -7.9375,3.1488 -11.05509,9.13368 -4.05077,28.65464 10.84791,26.82372 3.34963,-0.4101 6.4823,-1.64041 8.97203,-3.96848 9.9642,-9.31995 2.12195,-28.00959 -11.88244,-26.00404 m -116.945838,78.20342 3.175,-0.26458 v 26.72292 c 0,4.36297 -0.57732,9.18633 0.116417,13.49375 0.878152,5.45306 8.809832,6.7601 11.918421,2.38125 1.174486,-1.6563 0.665163,-4.42384 0.665163,-6.35 v -15.34584 c 0,-13.60223 -0.157957,-27.19387 0.770202,-40.74583 0.345546,-5.04825 -0.150284,-10.36109 0.90805,-15.34584 0.44106,-2.07433 3.101975,-3.0771 4.671748,-4.19629 3.286919,-2.34421 6.857735,-5.09852 8.73125,-8.76829 h 0.529167 c 1.118658,3.50308 5.047985,6.58283 7.9375,8.65188 1.46685,1.05039 4.148666,2.06375 4.458758,4.04812 0.939006,6.00869 0.705115,12.446 1.12104,18.52083 0.824971,12.04384 1.039548,24.16175 1.034785,36.24792 -0.0021,5.18584 -0.264583,10.40342 -0.264583,15.61042 0,2.23044 -0.334963,5.40808 0.817298,7.40833 2.264568,3.92906 10.811142,3.97934 11.792742,-1.05833 1.57639,-8.09096 0.35454,-17.4334 0.35454,-25.66459 0,-3.18558 -0.26458,-6.35529 -0.26458,-9.525 0,-1.97114 0.46302,-3.87614 0,-5.82083 h 3.175 v 26.9875 c 0,4.31271 -0.67231,9.24984 0.0871,13.49375 0.90408,5.0509 9.70915,6.16744 11.99965,1.58486 0.8837,-1.77007 0.34872,-4.68048 0.34872,-6.61194 v -15.08125 c 0,-12.90902 0.63976,-25.76248 0.79269,-38.62917 0.0476,-3.98992 0.34422,-7.92956 0.5199,-11.90625 0.081,-1.83356 -0.11932,-4.43442 0.8009,-6.08277 1.19195,-2.13254 4.46458,-3.42106 6.35317,-4.90008 2.64795,-2.07434 4.52676,-5.00592 7.14375,-7.00882 1.15729,3.43165 5.05619,6.46907 7.9375,8.45873 1.47215,1.01865 4.00315,2.06111 4.40796,3.97934 1.27794,6.08806 0.88636,13.34558 1.15888,19.57652 0.65352,14.89869 0.78316,29.76827 0.78316,44.71458 0,3.90261 -0.93133,9.26836 0.50007,12.96459 1.35466,3.49514 6.62516,4.07987 9.5541,2.54 3.25967,-1.71715 2.38125,-5.79173 2.38125,-8.89 v -24.87084 -7.14375 c 0,-0.82021 -0.21696,-2.10873 0.42333,-2.75167 0.60855,-0.60589 1.94998,-0.49741 2.75167,-0.68791 v 26.9875 c 0,4.32858 -0.64029,9.2366 0.16404,13.49375 0.9869,5.21758 9.98802,6.76804 12.21052,1.58485 0.77523,-1.8071 0.32544,-4.41589 0.32544,-6.34735 v -14.02292 c 0,-13.86681 -0.17727,-27.72569 0.76994,-41.53958 0.34131,-4.99269 -0.44715,-10.76061 0.96837,-15.61042 0.82021,-2.80194 6.64634,-5.35252 8.84502,-7.25752 5.70178,-4.94506 9.45621,-12.81139 10.30553,-20.25915 0.28839,-2.52756 0.93927,-5.40332 -0.61913,-7.6491 -2.02142,-2.91333 -7.80256,-3.56394 -10.04358,-0.5416 -1.28852,1.73593 -1.23032,4.03913 -1.57163,6.07404 -0.40481,2.43046 -1.22766,4.91622 -2.27541,7.14375 -4.86834,10.35314 -17.272,14.94631 -27.81036,11.37708 -5.86581,-1.98702 -11.09583,-6.68126 -13.49057,-12.43542 -2.46116,-5.91264 -0.52229,-14.41264 -9.2636,-14.01259 -6.24681,0.28601 -5.3041,10.21847 -7.35039,14.54176 -4.3815,9.25777 -14.77168,14.91721 -24.92877,12.78731 -7.052208,-1.47637 -13.292141,-6.22776 -16.37242,-12.78731 -2.77839,-5.91661 -1.070505,-16.18827 -10.615084,-14.46504 -4.92125,0.88874 -4.368535,9.42923 -5.821627,13.14212 -2.83554,7.24482 -9.479227,12.87463 -17.197123,14.17109 -9.824773,1.65364 -19.85645,-3.33375 -24.349869,-12.319 -1.646238,-3.29195 -1.5367,-8.31692 -3.836723,-11.0879 -2.236523,-2.69398 -8.421423,-3.08636 -10.332244,0.25056 -1.305719,2.28071 -0.393171,5.54329 0.188648,7.92692 1.621102,6.64157 4.656931,13.46994 9.765506,18.17952 2.008717,1.85208 7.526867,4.37621 8.304742,6.96648 0.398992,1.32821 0.06641,2.85486 0.196585,4.22275 0.359834,3.7809 0.512498,7.58561 0.772319,11.37708 0.936625,13.66044 1.034786,27.29442 1.034786,41.01042 v 14.2875 c 0,2.12196 -0.351367,4.91331 0.613304,6.87917 1.9558,3.98462 10.754783,4.50585 11.732154,-0.52917 0.814917,-4.19894 0.08996,-9.21544 0.08996,-13.49375 z"
       id="path179"
       inkscape:export-filename="path179.svg"
       inkscape:export-xdpi="107.26"
       inkscape:export-ydpi="107.26" /></g></svg>
